
<svg xmlns="http://www.w3.org/2000/svg" width="512" height="512" viewBox="0 0 512 512" role="img" aria-label="UK State Pension Calendar icon">
	<defs>
		<linearGradient id="bg" x1="0" y1="0" x2="1" y2="1">
			<stop offset="0" stop-color="#2563eb"/>
			<stop offset="1" stop-color="#1d4ed8"/>
		</linearGradient>
		<filter id="shadow" x="-10%" y="-10%" width="120%" height="120%">
			<feDropShadow dx="0" dy="2" stdDeviation="6" flood-color="#0f172a" flood-opacity="0.18"/>
		</filter>
	</defs>

	<!-- Main calendar shape with dark border -->
	<rect x="32" y="32" width="448" height="448" rx="96" fill="url(#bg)" stroke="#0f172a" stroke-width="8"/>

	<!-- Calendar body -->
	<rect x="124" y="130" width="264" height="272" rx="28" fill="#fff" opacity="0.98" stroke="#0f172a" stroke-width="2"/>
	<rect x="124" y="130" width="264" height="72" rx="28" fill="#0f172a" opacity="0.10"/>
	<rect x="124" y="174" width="264" height="28" rx="14" fill="#2563eb"/>

	<!-- Binder rings -->
	<rect x="174" y="112" width="28" height="56" rx="14" fill="#e2e8f0"/>
	<rect x="310" y="112" width="28" height="56" rx="14" fill="#e2e8f0"/>

	<!-- Day dots -->
	<g fill="#0f172a" opacity="0.22">
		<circle cx="180" cy="250" r="10"/>
		<circle cx="256" cy="250" r="10"/>
		<circle cx="332" cy="250" r="10"/>
		<circle cx="180" cy="306" r="10"/>
		<circle cx="256" cy="306" r="10"/>
		<circle cx="332" cy="306" r="10"/>
		<circle cx="180" cy="362" r="10"/>
		<circle cx="256" cy="362" r="10"/>
		<circle cx="332" cy="362" r="10"/>
	</g>

	<!-- Pension payment accent with stronger green -->
	<circle cx="332" cy="306" r="26" fill="#16a34a" stroke="#0f172a" stroke-width="2" filter="url(#shadow)"/>
	<!-- Larger, bold pound sign with dark border for clarity -->
	<text x="332" y="318" text-anchor="middle" font-size="44" font-weight="900" fill="#fff" stroke="#0f172a" stroke-width="3.5" paint-order="stroke" font-family="system-ui, -apple-system, Segoe UI, Roboto, sans-serif">£</text>
</svg>
